<svg width="21" height="21" viewBox="0 0 21 21" fill="none" xmlns="http://www.w3.org/2000/svg">
<g clip-path="url(#clip0)">
<path d="M18.4482 5.37915H15.0614L14.6248 3.19622C14.5157 2.65036 14.0324 2.25415 13.4757 2.25415H6.93641C6.37977 2.25415 5.89645 2.65036 5.7873 3.19622L5.3507 5.37915H1.96387C0.994609 5.37915 0.206055 6.16771 0.206055 7.13696V17.2932C0.206055 18.2625 0.994609 19.051 1.96387 19.051H18.4482C19.4175 19.051 20.2061 18.2625 20.2061 17.2932V7.13696C20.2061 6.16771 19.4175 5.37915 18.4482 5.37915ZM6.93641 3.42603H13.4757L13.8663 5.37915H6.54578L6.93641 3.42603ZM19.0342 17.2932C19.0342 17.6163 18.7713 17.8792 18.4482 17.8792H1.96387C1.64078 17.8792 1.37793 17.6163 1.37793 17.2932V7.13696C1.37793 6.81388 1.64078 6.55103 1.96387 6.55103H18.4482C18.7713 6.55103 19.0342 6.81388 19.0342 7.13696V17.2932Z" fill="#FF5DA2"/>
<path d="M10.2061 7.87915C7.8152 7.87915 5.87012 9.82423 5.87012 12.2151C5.87012 14.6059 7.8152 16.551 10.2061 16.551C12.5969 16.551 14.542 14.6059 14.542 12.2151C14.542 9.82423 12.5969 7.87915 10.2061 7.87915ZM10.2061 15.3792C8.46137 15.3792 7.04199 13.9597 7.04199 12.2151C7.04199 10.4704 8.46137 9.05103 10.2061 9.05103C11.9507 9.05103 13.3701 10.4704 13.3701 12.2151C13.3701 13.9597 11.9507 15.3792 10.2061 15.3792Z" fill="#FF5DA2"/>
<path d="M5.20605 7.87915H3.33105C3.00746 7.87915 2.74512 8.14149 2.74512 8.46509C2.74512 8.78868 3.00746 9.05103 3.33105 9.05103H5.20605C5.52965 9.05103 5.79199 8.78868 5.79199 8.46509C5.79199 8.14149 5.52965 7.87915 5.20605 7.87915Z" fill="#FF5DA2"/>
</g>
<defs>
<clipPath id="clip0">
<rect width="20" height="20" fill="white" transform="translate(0.206055 0.652588)"/>
</clipPath>
</defs>
</svg>
